<svg width="20" height="20" viewBox="0 0 20 20" fill="none" xmlns="http://www.w3.org/2000/svg">
<path d="M13.0556 0.833344H6.11111C4.57698 0.833344 3.33333 1.92776 3.33333 3.27779V16.7222C3.33333 18.0723 4.57698 19.1667 6.11111 19.1667H13.0556C14.5897 19.1667 15.8333 18.0723 15.8333 16.7222V3.27779C15.8333 1.92776 14.5897 0.833344 13.0556 0.833344Z" stroke="#808080" stroke-width="1.5" stroke-linecap="round" stroke-linejoin="round"/>
<path d="M11.6667 3.33334H7.5C6.57952 3.33334 5.83333 3.9303 5.83333 4.66668V12C5.83333 12.7364 6.57952 13.3333 7.5 13.3333H11.6667C12.5871 13.3333 13.3333 12.7364 13.3333 12V4.66668C13.3333 3.9303 12.5871 3.33334 11.6667 3.33334Z" stroke="#808080" stroke-width="1.5" stroke-linecap="round" stroke-linejoin="round"/>
<ellipse cx="9.58333" cy="16.25" rx="1.25" ry="1.25" fill="#808080"/>
</svg>
