<svg width="24" height="24" viewBox="0 0 24 24" fill="none" xmlns="http://www.w3.org/2000/svg">
<path fill-rule="evenodd" clip-rule="evenodd" d="M2.88142 12C2.99248 12.1722 3.14244 12.3966 3.32905 12.6578C3.78057 13.2899 4.44177 14.1311 5.28033 14.9697C6.97649 16.6658 9.29493 18.25 12 18.25C14.7051 18.25 17.0235 16.6658 18.7197 14.9697C19.5582 14.1311 20.2194 13.2899 20.6709 12.6578C20.8576 12.3966 21.0075 12.1722 21.1186 12C21.0075 11.8278 20.8576 11.6034 20.6709 11.3422C20.2194 10.7101 19.5582 9.86889 18.7197 9.03033C17.0235 7.33417 14.7051 5.75 12 5.75C9.29493 5.75 6.97649 7.33417 5.28033 9.03033C4.44177 9.86889 3.78057 10.7101 3.32905 11.3422C3.14244 11.6034 2.99248 11.8278 2.88142 12ZM22 12C22.6512 11.6279 22.651 11.6277 22.6509 11.6274L22.6495 11.625L22.6463 11.6195L22.6356 11.6011C22.6265 11.5856 22.6136 11.5636 22.5967 11.5355C22.5631 11.4795 22.5141 11.3992 22.4502 11.2982C22.3225 11.0964 22.135 10.8112 21.8916 10.4703C21.4056 9.78994 20.6918 8.88111 19.7803 7.96967C17.9765 6.16583 15.2949 4.25 12 4.25C8.70507 4.25 6.02351 6.16583 4.21967 7.96967C3.30823 8.88111 2.59443 9.78994 2.10845 10.4703C1.86499 10.8112 1.67749 11.0964 1.54978 11.2982C1.4859 11.3992 1.4369 11.4795 1.40327 11.5355C1.38645 11.5636 1.37346 11.5856 1.36437 11.6011L1.35365 11.6195L1.3505 11.625L1.34947 11.6268C1.34932 11.627 1.34882 11.6279 2 12L1.34882 11.6279C1.21706 11.8585 1.21706 12.1415 1.34882 12.3721L2 12C1.34882 12.3721 1.34867 12.3718 1.34882 12.3721L1.34947 12.3732L1.3505 12.375L1.35365 12.3805L1.36437 12.3989C1.37346 12.4144 1.38645 12.4364 1.40327 12.4645C1.4369 12.5205 1.4859 12.6008 1.54978 12.7018C1.67749 12.9036 1.86499 13.1888 2.10845 13.5297C2.59443 14.2101 3.30823 15.1189 4.21967 16.0303C6.02351 17.8342 8.70507 19.75 12 19.75C15.2949 19.75 17.9765 17.8342 19.7803 16.0303C20.6918 15.1189 21.4056 14.2101 21.8916 13.5297C22.135 13.1888 22.3225 12.9036 22.4502 12.7018C22.5141 12.6008 22.5631 12.5205 22.5967 12.4645C22.6136 12.4364 22.6265 12.4144 22.6356 12.3989L22.6463 12.3805L22.6495 12.375L22.6505 12.3732C22.6507 12.373 22.6512 12.3721 22 12ZM22 12L22.6512 12.3721C22.7829 12.1415 22.7827 11.858 22.6509 11.6274L22 12Z" fill="#4D4D4D"/>
<path fill-rule="evenodd" clip-rule="evenodd" d="M12 9.75C10.7574 9.75 9.75 10.7574 9.75 12C9.75 13.2426 10.7574 14.25 12 14.25C13.2426 14.25 14.25 13.2426 14.25 12C14.25 10.7574 13.2426 9.75 12 9.75ZM8.25 12C8.25 9.92893 9.92893 8.25 12 8.25C14.0711 8.25 15.75 9.92893 15.75 12C15.75 14.0711 14.0711 15.75 12 15.75C9.92893 15.75 8.25 14.0711 8.25 12Z" fill="#4D4D4D"/>
</svg>
